<?xml version="1.0" encoding="iso-8859-1"?>
<!-- Generator: Adobe Illustrator 19.0.0, SVG Export Plug-In . SVG Version: 6.00 Build 0)  -->
<svg version="1.1" id="Capa_1" xmlns="http://www.w3.org/2000/svg" xmlns:xlink="http://www.w3.org/1999/xlink" x="0px" y="0px"
	 viewBox="0 0 512 512" style="enable-background:new 0 0 512 512;" xml:space="preserve">
<path style="fill:#45CDD9;" d="M247.984,300.086v40.078c1.79,3.277,24.047,48.094,72.141,48.094s88.172,0,88.172,0
	s24.047,80.157,24.047,72.141h72.141V300.086H247.984z"/>
<path style="fill:#38B1C9;" d="M424.329,372.227c0,0-40.078,0-88.172,0s-70.35-44.817-72.141-48.094v-24.047h-16.031v40.078
	c1.79,3.277,24.047,48.094,72.141,48.094s88.172,0,88.172,0l24.047,72.141h18.044C441.107,430.948,424.329,372.227,424.329,372.227z
	"/>
<rect x="408.297" y="139.773" style="fill:#45CDD9;" width="96.188" height="160.313"/>
<rect x="408.297" y="139.773" style="fill:#38B1C9;" width="16.031" height="160.313"/>
<circle style="fill:#B874C4;" cx="464.407" cy="195.883" r="16.031"/>
<circle style="fill:#FFF0BD;" cx="256" cy="187.867" r="40.078"/>
<path style="fill:#FFE795;" d="M272.031,219.93c-22.134,0-40.078-17.944-40.078-40.078c0-12.452,5.679-23.579,14.589-30.929
	c-17.568,4.252-30.621,20.07-30.621,38.945c0,22.134,17.944,40.078,40.078,40.078c9.682,0,18.562-3.434,25.489-9.149
	C278.456,219.531,275.291,219.93,272.031,219.93z"/>
<path style="fill:#B874C4;" d="M336.157,251.992h-98.399c0,0-51.358-41.609-55.464-44.768c-7.016-5.4-17.083-4.086-22.481,2.933
	l-84.848,96.187c-5.399,7.018-8.236,26.454-3.324,33.821c16.031,24.047,64.125,88.172,64.125,88.172H23.546
	c-8.854,0-16.031,7.177-16.031,16.031c0,8.854,7.177,16.031,16.031,16.031h144.282c5.556,0,10.716-2.877,13.637-7.603
	c2.921-4.727,3.187-10.628,0.701-15.597L130.301,333.47l61.573-73.462l29.815,20.332c2.882,2.401,6.513,3.715,10.263,3.715h104.204
	c8.854,0,16.031-7.177,16.031-16.031C352.188,259.169,345.011,251.992,336.157,251.992z"/>
<path style="fill:#D4D4D9;" d="M237.757,251.992c0,0-51.358-41.609-55.464-44.768c-7.016-5.4-17.083-4.086-22.481,2.933
	L88.085,291.47l42.277,41.93l61.513-73.392l29.815,20.332c2.882,2.401,6.513,3.715,10.263,3.715h72.141v-32.063H237.757z"/>
<path style="fill:#676779;" d="M74.964,306.343c-5.399,7.018-8.236,26.454-3.324,33.821c16.031,24.047,64.125,88.172,64.125,88.172
	H23.546c-8.854,0-16.031,7.177-16.031,16.031c0,8.854,7.177,16.031,16.031,16.031h144.282c5.556,0,10.716-2.877,13.637-7.603
	c2.921-4.727,3.187-10.628,0.701-15.597L130.301,333.47l0.058-0.07l-42.277-41.93L74.964,306.343z"/>
<path style="fill:#FFF0BD;" d="M336.157,251.992h-32.063v32.063h32.063c8.854,0,16.031-7.177,16.031-16.031
	C352.188,259.169,345.011,251.992,336.157,251.992z"/>
<path style="fill:#525266;" d="M175.843,444.368H31.562c-8.151,0-14.864-6.087-15.883-13.959c-4.871,2.75-8.164,7.967-8.164,13.959
	c0,8.854,7.177,16.031,16.031,16.031h144.282c5.556,0,10.716-2.877,13.637-7.603c1.966-3.182,2.723-6.895,2.254-10.5
	C181.353,443.632,178.649,444.368,175.843,444.368z"/>
<path style="fill:#FFE795;" d="M352.04,265.951c-2.326,1.314-5.006,2.072-7.867,2.072h-39.577v16.031h31.562
	c8.854,0,16.031-7.177,16.031-16.031C352.188,267.32,352.127,266.632,352.04,265.951z"/>
<path style="fill:#BEBEC6;" d="M239.969,268.023c-3.75,0-7.381-1.316-10.263-3.715l-29.815-20.332l-61.572,73.461l2.026,4.051
	l51.531-61.481l29.815,20.332c2.882,2.401,6.513,3.715,10.263,3.715h72.642v-16.031H239.969z"/>
<path style="fill:#525266;" d="M74.964,306.343c-5.399,7.018-8.236,26.454-3.324,33.821c1.597,2.396,3.517,5.194,5.671,8.282
	c-0.918-8.872,1.672-20.875,5.67-26.072l15.789-17.899l-11.485-12.098L74.964,306.343z"/>
<path style="fill:#BEBEC6;" d="M182.293,207.224c-7.016-5.4-17.083-4.086-22.481,2.933l-72.528,82.222l11.485,12.098l69.058-78.288
	c5.398-7.019,15.465-8.331,22.481-2.933c1.046,0.805,5.16,4.105,10.707,8.576l5.29-5.29
	C194.773,217.221,184.077,208.595,182.293,207.224z"/>
<path style="fill:#525266;" d="M215.922,187.867c0,0,88.172,24.047,112.219-32.063c-24.047,8.016-56.577-20.748-80.157-16.031
	C207.906,147.789,215.922,187.867,215.922,187.867z"/>
<path d="M504.485,132.258h-96.188c-4.151,0-7.515,3.364-7.515,7.515v149.793H247.984c-4.151,0-7.515,3.364-7.515,7.515v43.084
	c0,1.259,0.316,2.498,0.921,3.604l0.185,0.348c6.437,12.118,31.126,51.657,78.549,51.657h82.757l22.334,67.003
	c1.023,3.069,3.895,5.138,7.129,5.138h72.141c4.151,0,7.515-3.364,7.515-7.515v-85.166c0-4.151-3.364-7.515-7.515-7.515
	s-7.515,3.364-7.515,7.515v77.652H437.76l-22.334-67.003c-1.023-3.069-3.895-5.138-7.129-5.138h-88.172
	c-37.63,0-58.307-31.06-64.626-42.479v-33.67h241.472v31.562c0,4.151,3.364,7.515,7.515,7.515S512,340.308,512,333.151V136.767
	C512,135.622,508.636,132.258,504.485,132.258z M415.812,289.566V147.288h81.159v142.278H415.812z"/>
<path d="M464.407,172.337h-32.063c-4.151,0-7.515,3.364-7.515,7.515s3.364,7.515,7.515,7.515h10.117
	c-1.029,2.643-1.6,5.514-1.6,8.517c0,12.983,10.563,23.546,23.546,23.546s23.546-10.563,23.546-23.546
	S477.39,172.337,464.407,172.337z M464.407,204.399c-4.696,0-8.517-3.82-8.517-8.517s3.82-8.517,8.517-8.517
	c4.696,0,8.517,3.82,8.517,8.517S469.103,204.399,464.407,204.399z"/>
<path d="M256,235.46c25.066,0,45.653-19.482,47.451-44.098c14.629-7.011,25.326-17.968,31.597-32.598
	c2.505-5.843-3.262-12.091-9.284-10.089c-10.073,3.36-23.975-2.19-37.417-7.556c-14.014-5.595-28.504-11.378-41.837-8.715
	c-24.468,4.894-33.538,20.345-36.837,32.444c-2.991,10.965-1.695,21.044-1.247,23.778C208.835,214.519,230.012,235.46,256,235.46z
	 M256,220.431c-14.606,0-26.996-9.666-31.111-22.937c7.959,1.445,19.538,3.011,32.371,3.011c1.99,0,4.011-0.038,6.053-0.119
	c8.622-0.345,16.596-1.446,23.903-3.266C283.22,210.581,270.742,220.431,256,220.431z M224.296,168.365
	c3.314-11.558,11.544-18.5,25.161-21.223c8.953-1.795,21.339,3.154,33.317,7.936c10.397,4.151,21.023,8.393,31.398,9.433
	c-23.641,28.68-75.193,20.627-91.342,17.243C222.682,178.33,222.847,173.417,224.296,168.365z"/>
<path d="M336.157,291.569c12.983,0,23.546-10.563,23.546-23.546c0-12.983-10.563-23.546-23.546-23.546h-95.738
	c-9.768-7.912-49.838-40.359-53.543-43.208c-4.985-3.835-11.167-5.501-17.402-4.687c-6.146,0.802-11.623,3.915-15.449,8.776
	L69.33,301.373c-0.111,0.125-0.219,0.255-0.321,0.389c-6.615,8.599-10.956,31.572-3.621,42.571
	c11.88,17.822,40.641,56.692,55.385,76.489H23.546C10.563,420.822,0,431.385,0,444.368c0,12.983,10.563,23.546,23.546,23.546
	h144.282c12.662,0,23.352-10.443,23.564-23.144c0.063-3.781-0.814-7.552-2.504-10.932l-49.66-99.319l54.036-64.469l23.924,16.314
	c4.175,3.361,9.402,5.205,14.766,5.205h104.204V291.569z M344.673,268.023c0,4.696-3.82,8.517-8.517,8.517h-24.548v-17.033h24.548
	C340.853,259.507,344.673,263.327,344.673,268.023z M175.446,440.559c2.789,5.577-1.405,12.325-7.618,12.325H23.546
	c-4.696,0-8.517-3.82-8.517-8.517c0-4.696,3.82-8.517,8.517-8.517h112.219c6.065,0,9.658-7.161,6.012-12.023
	c-0.48-0.64-48.152-64.232-63.885-87.833c-2.721-4.08-0.868-19.713,2.903-24.903l7.157-8.113l34.483,34.483
	c0.662,0.662,1.421,1.166,2.226,1.53L175.446,440.559z M226.499,274.565c-0.185-0.153-0.377-0.3-0.575-0.435l-29.815-20.332
	c-3.191-2.174-7.513-1.579-9.994,1.382l-56.863,67.843l-31.338-31.338l67.533-76.559c0.111-0.126,0.219-0.257,0.322-0.39
	c1.387-1.804,3.393-2.958,5.649-3.252c2.252-0.297,4.489,0.307,6.293,1.695c3.189,2.452,37.577,30.279,55.315,44.65
	c1.339,1.084,3.009,1.676,4.731,1.676h58.822v17.033h-64.626C229.965,276.54,228.028,275.839,226.499,274.565z"/>
<path d="M239.969,91.178c12.983,0,23.546-10.563,23.546-23.546s-10.563-23.546-23.546-23.546s-23.546,10.563-23.546,23.546
	S226.985,91.178,239.969,91.178z M239.969,59.115c4.696,0,8.517,3.82,8.517,8.517c0,4.696-3.82,8.517-8.517,8.517
	s-8.517-3.82-8.517-8.517S235.273,59.115,239.969,59.115z"/>
<path d="M360.204,203.397c12.983,0,23.546-10.563,23.546-23.546s-10.563-23.546-23.546-23.546s-23.546,10.563-23.546,23.546
	S347.22,203.397,360.204,203.397z M360.204,171.335c4.696,0,8.517,3.82,8.517,8.517s-3.82,8.517-8.517,8.517
	c-4.696,0-8.517-3.82-8.517-8.517S355.507,171.335,360.204,171.335z"/>
<path d="M111.718,171.335c12.983,0,23.546-10.563,23.546-23.546s-10.563-23.546-23.546-23.546s-23.546,10.563-23.546,23.546
	S98.735,171.335,111.718,171.335z M111.718,139.272c4.696,0,8.517,3.82,8.517,8.517s-3.82,8.517-8.517,8.517
	s-8.517-3.82-8.517-8.517S107.022,139.272,111.718,139.272z"/>
<path d="M296.078,115.225h8.517v8.517c0,4.151,3.364,7.515,7.515,7.515s7.515-3.364,7.515-7.515v-8.517h8.517
	c4.151,0,7.515-3.364,7.515-7.515c0-4.151-3.364-7.515-7.515-7.515h-8.517v-8.517c0-4.151-3.364-7.515-7.515-7.515
	s-7.515,3.364-7.515,7.515v8.517h-8.517c-4.151,0-7.515,3.364-7.515,7.515C288.564,111.861,291.927,115.225,296.078,115.225z"/>
<path d="M167.828,139.272h8.517v8.517c0,4.151,3.364,7.515,7.515,7.515s7.515-3.364,7.515-7.515v-8.517h8.517
	c4.151,0,7.515-3.364,7.515-7.515c0-4.151-3.364-7.515-7.515-7.515h-8.517v-8.517c0-4.151-3.364-7.515-7.515-7.515
	s-7.515,3.364-7.515,7.515v8.517h-8.517c-4.151,0-7.515,3.364-7.515,7.515S163.677,139.272,167.828,139.272z"/>
<g>
</g>
<g>
</g>
<g>
</g>
<g>
</g>
<g>
</g>
<g>
</g>
<g>
</g>
<g>
</g>
<g>
</g>
<g>
</g>
<g>
</g>
<g>
</g>
<g>
</g>
<g>
</g>
<g>
</g>
</svg>
