<?xml version="1.0" encoding="iso-8859-1"?>
<!-- Generator: Adobe Illustrator 19.0.0, SVG Export Plug-In . SVG Version: 6.00 Build 0)  -->
<svg version="1.1" id="Capa_1" xmlns="http://www.w3.org/2000/svg" xmlns:xlink="http://www.w3.org/1999/xlink" x="0px" y="0px"
	 viewBox="0 0 511.998 511.998" style="enable-background:new 0 0 511.998 511.998;" xml:space="preserve">
<path style="fill:#F7A6A6;" d="M420.686,292.087c-21.273-6.084-43.861,3.857-53.759,23.645h-59.732
	c-21.205-28.279-61.32-34.005-89.598-12.8c-4.855,3.635-9.165,7.944-12.8,12.8h-59.732c-9.898-19.788-32.486-29.73-53.759-23.645
	L8.533,315.733v187.73h494.925v-187.73L420.686,292.087z"/>
<path style="fill:#F59A9A;" d="M8.533,503.463h494.925v-187.73l-11.571-3.302C348.393,437.408,112.083,453.493,8.533,457.691
	V503.463z"/>
<path style="fill:#E6E6E6;" d="M208.287,133.123L208.287,133.123c-7.936-3.388-16.478-5.137-25.105-5.12l0,0
	c-35.191,0-63.717,28.526-63.717,63.717l0,0l0,0c0,36.863,6.63,73.428,19.575,107.945l6.024,16.068l7.048,126.837
	c0.836,15.01,13.252,26.76,28.288,26.76l0,0c14.02,0,25.932-10.265,28.014-24.132l18.184-121.171
	c2.167-14.566,14.669-25.352,29.397-25.361l0,0c14.711,0,27.212,10.769,29.397,25.318l18.184,121.171
	c2.057,13.884,13.977,24.166,28.014,24.175l0,0c15.035,0,27.451-11.75,28.288-26.76l7.048-126.837l6.024-16.068
	c12.945-34.517,19.575-71.081,19.575-107.945l0,0c0-35.191-28.526-63.717-63.717-63.717l0,0c-8.627-0.017-17.169,1.732-25.105,5.12
	l0,0C273.241,146.178,238.75,146.178,208.287,133.123z"/>
<path style="fill:#F7F7F7;" d="M162.131,213.335h-17.066v-10.24c0.452-20.36,11.878-38.877,29.866-48.409l8.465,14.814
	c-12.646,6.536-20.778,19.404-21.265,33.638V213.335z"/>
<g>
	<path style="fill:#DEDEDE;" d="M152.113,442.57c0.828,15.624,14.165,27.622,29.789,26.794c13.465-0.708,24.567-10.82,26.53-24.166
		l14.063-93.746c-23.304,12.996-48.05,23.227-73.735,30.481L152.113,442.57z"/>
	<path style="fill:#DEDEDE;" d="M280.145,311.236c2.731,3.772,4.531,8.141,5.248,12.749l18.184,121.171
		c2.278,15.479,16.674,26.18,32.153,23.901c13.346-1.963,23.458-13.064,24.166-26.53l7.031-126.795l6.024-16.068
		c12.945-34.517,19.575-71.081,19.575-107.945c0-9.131-1.98-18.159-5.794-26.453C362.405,221.185,326.002,271.036,280.145,311.236z"
		/>
</g>
<polygon style="fill:#F9BC61;" points="503.458,102.403 452.259,102.403 503.458,8.538 358.394,102.403 418.126,102.403 
	358.394,213.335 "/>
<path d="M505.796,307.524l-82.772-23.645c-12.092-3.456-25.011-2.611-36.548,2.398c6.647-21.094,11.068-42.837,13.184-64.852
	l-16.981-1.596c-2.492,26.299-8.448,52.146-17.715,76.884l-6.033,16.059c-0.299,0.819-0.478,1.681-0.521,2.56l-7.048,126.846
	c-0.606,10.914-9.941,19.276-20.855,18.679c-9.378-0.521-17.101-7.552-18.491-16.845L293.84,322.79
	c-3.149-20.898-22.639-35.293-43.545-32.145c-16.606,2.5-29.644,15.539-32.145,32.145l-18.176,121.223
	c-1.613,10.812-11.69,18.27-22.502,16.657c-9.293-1.391-16.324-9.113-16.844-18.491l-7.031-126.923
	c-0.043-0.879-0.222-1.741-0.521-2.56l-6.033-16.059c-12.604-33.544-19.055-69.085-19.046-104.916
	c0.017-30.489,24.746-55.201,55.235-55.184c7.458,0,14.839,1.519,21.7,4.454c32.622,13.918,69.503,13.918,102.125,0
	c20.155-8.422,43.374-4.352,59.459,10.436l11.665-12.45c-20.932-19.601-51.481-24.96-77.84-13.653
	c-28.33,12.083-60.364,12.083-88.694,0c-36.676-15.718-79.154,1.263-94.872,37.939c-3.857,8.994-5.845,18.679-5.845,28.467
	c-0.009,32.068,4.881,63.948,14.506,94.539c-11.528-4.983-24.422-5.828-36.496-2.389L6.17,307.524
	c-3.661,1.05-6.178,4.403-6.17,8.209v187.73c0,4.71,3.823,8.533,8.533,8.533h494.925c4.71,0,8.533-3.823,8.533-8.533v-187.73
	C511.991,311.919,509.466,308.565,505.796,307.524z M494.925,494.93H17.066V322.167l76.585-21.879
	c16.776-4.762,34.628,2.705,43.007,18.005l6.937,124.755c1.143,20.326,18.551,35.874,38.877,34.73
	c17.425-0.981,31.778-14.054,34.38-31.317l18.184-121.223c1.724-11.571,12.501-19.567,24.072-17.843
	c9.224,1.374,16.469,8.618,17.843,17.843l18.184,121.223c3.029,20.13,21.811,33.996,41.941,30.967
	c17.263-2.603,30.335-16.947,31.317-34.38l6.938-124.755c8.38-15.3,26.231-22.767,43.007-18.005l76.585,21.879V494.93z"/>
<path d="M350.211,104.818c1.067,3.627,4.403,6.118,8.183,6.118h45.448l-52.966,98.354c-2.227,4.147-0.674,9.327,3.473,11.554
	c2.952,1.587,6.562,1.297,9.224-0.734l145.064-110.931c3.746-2.867,4.454-8.217,1.587-11.964c-1.613-2.108-4.113-3.345-6.767-3.345
	h-36.821l44.313-81.245c2.261-4.139,0.742-9.318-3.396-11.58c-2.748-1.502-6.101-1.374-8.729,0.324L353.761,95.235
	C350.586,97.283,349.136,101.183,350.211,104.818z M479.864,33.993L444.767,98.35c-2.236,4.147-0.691,9.327,3.456,11.562
	c1.237,0.666,2.628,1.024,4.036,1.024h25.992l-93.549,71.542l40.959-76.031c2.236-4.147,0.683-9.327-3.473-11.562
	c-1.246-0.674-2.645-1.024-4.062-1.015h-30.839L479.864,33.993z"/>
<path d="M145.064,203.137v10.197h17.066v-10.24c0.512-14.233,8.67-27.076,21.333-33.595l-8.533-14.771
	C156.942,164.26,145.517,182.777,145.064,203.137z"/>
<g>
</g>
<g>
</g>
<g>
</g>
<g>
</g>
<g>
</g>
<g>
</g>
<g>
</g>
<g>
</g>
<g>
</g>
<g>
</g>
<g>
</g>
<g>
</g>
<g>
</g>
<g>
</g>
<g>
</g>
</svg>
