<svg height="512pt" viewBox="-66 0 512 512" width="512pt" xmlns="http://www.w3.org/2000/svg"><path d="m339.976562 215.734375-141.191406-204.652344c-3.277344-4.757812-10.308594-4.78125-13.621094-.050781l-143.355468 204.703125c-86.003906 121.082031.566406 288.765625 149.085937 288.765625 148.515625 0 235.089844-167.683594 149.082031-288.765625zm0 0" fill="#60b8fe"/><path d="m71.808594 215.734375 135.089844-192.894531-8.113282-11.757813c-3.277344-4.757812-10.308594-4.78125-13.621094-.050781l-143.355468 204.703125c-86.003906 121.082031.566406 288.765625 149.085937 288.765625 5.074219 0 10.074219-.203125 15-.585938-139.230469-10.824218-217.152343-171.234374-134.085937-288.179687zm0 0" fill="#23a8fe"/><path d="m258.53125 430.878906c-4.707031-5.816406-3.808594-14.347656 2.011719-19.054687 29.144531-23.582031 45.996093-59.925781 45.070312-97.214844-.183593-7.484375 5.730469-13.699219 13.210938-13.882813.113281-.003906.230469-.003906.339843-.003906 7.328126 0 13.359376 5.847656 13.542969 13.214844 1.128907 45.648438-19.476562 90.117188-55.121093 118.957031-5.789063 4.683594-14.324219 3.828125-19.054688-2.015625zm0 0" fill="#23a8fe"/><path d="m276.53125 430.878906c-4.707031-5.816406-3.808594-14.347656 2.011719-19.054687 29.144531-23.582031 45.996093-59.925781 45.070312-97.214844-.101562-4.144531 1.671875-7.894531 4.542969-10.453125-2.398438-2.132812-5.546875-3.433594-8.988281-3.433594-.113281 0-.230469 0-.34375.003906-7.480469.183594-13.394531 6.398438-13.210938 13.882813.925781 37.292969-15.925781 73.632813-45.070312 97.214844-5.820313 4.707031-6.71875 13.238281-2.011719 19.054687 4.730469 5.84375 13.265625 6.699219 19.058594 2.011719.164062-.132813.324218-.273437.488281-.410156-.546875-.484375-1.070313-1.011719-1.546875-1.601563zm0 0" fill="#0193fa"/><path d="m321.632812 373.59375c3.90625 1.375 8.191407-.671875 9.566407-4.578125 6.328125-17.941406 9.304687-36.535156 8.839843-55.265625-.285156-11.511719-9.527343-20.527344-21.039062-20.527344-.175781 0-.355469 0-.527344.003906-11.628906.289063-20.808594 9.933594-20.519531 21.566407.863281 34.980469-14.945313 69.074219-42.292969 91.199219-9.046875 7.316406-10.445312 20.558593-3.125 29.605468 7.304688 9.023438 20.582032 10.421875 29.605469 3.125 12.808594-10.363281 23.875-22.710937 32.890625-36.695312 2.242188-3.484375 1.238281-8.125-2.242188-10.367188-3.480468-2.246094-8.125-1.242187-10.367187 2.238282-8.148437 12.644531-18.148437 23.804687-29.71875 33.164062-2.59375 2.097656-6.410156 1.691406-8.507813-.898438-2.101562-2.597656-1.703124-6.40625.898438-8.507812 30.945312-25.035156 48.832031-63.628906 47.851562-103.234375-.082031-3.335937 2.566407-6.117187 5.90625-6.199219h.148438c3.25 0 5.960938 2.644532 6.042969 5.898438.417969 16.898437-2.269531 33.691406-7.988281 49.90625-1.378907 3.90625.671874 8.1875 4.578124 9.566406zm0 0"/><path d="m373.761719 310.488281c4.121093-.414062 7.125-4.09375 6.710937-8.214843-3.300781-32.664063-14.914062-63.226563-34.519531-90.839844l-141.160156-204.613282c-2.933594-4.253906-7.773438-6.804687-12.945313-6.820312-.019531 0-.035156 0-.054687 0-5.148438 0-9.984375 2.511719-12.9375 6.730469l-143.324219 204.664062c-89.644531 126.195313.714844 300.605469 155.195312 300.605469 102.375 0 180.832032-78.191406 189.839844-173.265625.394532-4.121094-2.632812-7.78125-6.757812-8.171875-4.113282-.378906-7.78125 2.632812-8.175782 6.757812-8.21875 86.742188-79.675781 159.679688-174.90625 159.679688-142.464843 0-225.464843-160.78125-142.9375-276.960938l143.351563-204.703124c.058594-.082032.234375-.335938.652344-.335938s.597656.257812.652343.339844l141.191407 204.65625c.019531.027344.039062.054687.058593.082031 18.097657 25.480469 28.8125 53.640625 31.851563 83.703125.417969 4.121094 4.097656 7.132812 8.214844 6.707031zm0 0"/></svg>